<svg xmlns="http://www.w3.org/2000/svg" width="566" height="357" fill="none" viewBox="0 0 566 357"><rect width="566" height="357" fill="#fff"/><path fill="#000" d="M304.382 125.451C305.183 125.24 305.661 124.419 305.451 123.618L302.015 110.563C301.804 109.762 300.984 109.283 300.183 109.494C299.381 109.705 298.903 110.525 299.114 111.326L302.168 122.931L290.563 125.985C289.762 126.196 289.283 127.016 289.494 127.817C289.705 128.619 290.525 129.097 291.326 128.886L304.382 125.451ZM279.244 111.296L303.244 125.296L304.756 122.704L280.756 108.704L279.244 111.296Z"/><path fill="#000" d="M317.563 188.505C317.611 187.678 316.98 186.969 316.153 186.921L302.676 186.138C301.848 186.09 301.139 186.721 301.091 187.548C301.043 188.375 301.675 189.085 302.502 189.133L314.481 189.829L313.785 201.809C313.737 202.636 314.369 203.345 315.196 203.393C316.023 203.441 316.732 202.81 316.78 201.983L317.563 188.505ZM296.31 208.013L317.063 189.539L315.068 187.298L294.315 205.772L296.31 208.013Z"/><path fill="#000" d="M220.718 134.317C221.446 133.92 221.714 133.009 221.317 132.282L214.852 120.43C214.456 119.703 213.544 119.435 212.817 119.832C212.09 120.228 211.822 121.139 212.219 121.867L217.965 132.401L207.43 138.148C206.703 138.544 206.435 139.456 206.832 140.183C207.228 140.91 208.139 141.178 208.867 140.781L220.718 134.317ZM185.577 124.439L219.577 134.439L220.423 131.561L186.423 121.561L185.577 124.439Z"/><path fill="#000" d="M270.489 216.818C270.389 215.996 269.641 215.411 268.818 215.511L255.418 217.145C254.595 217.246 254.01 217.993 254.11 218.816C254.211 219.638 254.959 220.223 255.781 220.123L267.693 218.671L269.145 230.582C269.246 231.405 269.993 231.99 270.816 231.89C271.638 231.789 272.223 231.041 272.123 230.219L270.489 216.818ZM252.181 240.924L270.181 217.924L267.819 216.076L249.819 239.076L252.181 240.924Z"/><path fill="#000" d="M227.498 203.071C227.538 202.244 226.899 201.541 226.071 201.502L212.587 200.86C211.759 200.82 211.056 201.459 211.017 202.287C210.978 203.114 211.616 203.817 212.444 203.856L224.43 204.427L223.86 216.413C223.82 217.241 224.459 217.944 225.287 217.983C226.114 218.022 226.817 217.384 226.856 216.556L227.498 203.071ZM205.009 224.11L227.009 204.11L224.991 201.89L202.991 221.89L205.009 224.11Z"/><path fill="#000" d="M169.496 194.115C169.559 193.289 168.941 192.568 168.115 192.504L154.655 191.469C153.829 191.405 153.108 192.024 153.044 192.85C152.981 193.676 153.599 194.397 154.425 194.46L166.389 195.381L165.469 207.345C165.405 208.171 166.024 208.892 166.85 208.956C167.676 209.019 168.397 208.401 168.46 207.575L169.496 194.115ZM147.976 213.139L168.976 195.139L167.024 192.861L146.024 210.861L147.976 213.139Z"/><path fill="#000" d="M153.655 117.349C154.401 116.987 154.711 116.09 154.349 115.345L148.451 103.201C148.089 102.456 147.192 102.145 146.446 102.507C145.701 102.869 145.391 103.767 145.753 104.512L150.995 115.306L140.201 120.549C139.456 120.911 139.145 121.808 139.507 122.554C139.869 123.299 140.767 123.609 141.512 123.247L153.655 117.349ZM126.509 108.417L152.509 117.417L153.491 114.583L127.491 105.583L126.509 108.417Z"/><path fill="#000" d="M104.571 133.387C105.337 133.072 105.702 132.195 105.387 131.429L100.247 118.946C99.9315 118.18 99.0548 117.814 98.2888 118.13C97.5227 118.445 97.1574 119.322 97.4729 120.088L102.042 131.184L90.9457 135.753C90.1797 136.069 89.8144 136.945 90.1298 137.711C90.4453 138.477 91.3219 138.843 92.088 138.527L104.571 133.387ZM79.4231 123.385L103.423 133.385L104.577 130.615L80.5769 120.615L79.4231 123.385Z"/><path fill="#000" d="M83.423 211.474C83.685 210.688 83.2603 209.839 82.4743 209.577L69.6671 205.308C68.8812 205.046 68.0317 205.471 67.7698 206.257C67.5078 207.042 67.9325 207.892 68.7184 208.154L80.1026 211.949L76.3079 223.333C76.0459 224.119 76.4707 224.968 77.2566 225.23C78.0425 225.492 78.892 225.067 79.154 224.282L83.423 211.474ZM60.6708 223.342L82.6708 212.342L81.3292 209.658L59.3292 220.658L60.6708 223.342Z"/><circle cx="251" cy="248" r="12" fill="#5A5A5A"/><circle cx="251" cy="248" r="12" fill="#5A5A5A"/><circle cx="251" cy="248" r="12" fill="#5A5A5A"/><circle cx="251" cy="248" r="12" fill="#5A5A5A"/><circle cx="251" cy="248" r="12" fill="#5A5A5A"/><circle cx="251" cy="248" r="12" fill="#5A5A5A"/><circle cx="251" cy="248" r="12" fill="#5A5A5A"/><circle cx="251" cy="248" r="12" fill="#5A5A5A"/><circle cx="251" cy="248" r="12" fill="#5A5A5A"/><circle cx="251" cy="248" r="12" fill="#5A5A5A"/><circle cx="203" cy="230" r="12" fill="#5A5A5A"/><circle cx="203" cy="230" r="12" fill="#5A5A5A"/><circle cx="203" cy="230" r="12" fill="#5A5A5A"/><circle cx="203" cy="230" r="12" fill="#5A5A5A"/><circle cx="203" cy="230" r="12" fill="#5A5A5A"/><circle cx="203" cy="230" r="12" fill="#5A5A5A"/><circle cx="203" cy="230" r="12" fill="#5A5A5A"/><circle cx="203" cy="230" r="12" fill="#5A5A5A"/><circle cx="203" cy="230" r="12" fill="#5A5A5A"/><circle cx="203" cy="230" r="12" fill="#5A5A5A"/><circle cx="422" cy="104" r="12" fill="#5A5A5A"/><circle cx="422" cy="104" r="12" fill="#5A5A5A"/><circle cx="422" cy="104" r="12" fill="#5A5A5A"/><circle cx="422" cy="104" r="12" fill="#5A5A5A"/><circle cx="422" cy="104" r="12" fill="#5A5A5A"/><circle cx="422" cy="104" r="12" fill="#5A5A5A"/><circle cx="422" cy="104" r="12" fill="#5A5A5A"/><circle cx="422" cy="104" r="12" fill="#5A5A5A"/><circle cx="422" cy="104" r="12" fill="#5A5A5A"/><circle cx="422" cy="104" r="12" fill="#5A5A5A"/><circle cx="63" cy="305" r="12" fill="#5A5A5A"/><circle cx="63" cy="305" r="12" fill="#5A5A5A"/><circle cx="63" cy="305" r="12" fill="#5A5A5A"/><circle cx="63" cy="305" r="12" fill="#5A5A5A"/><circle cx="63" cy="305" r="12" fill="#5A5A5A"/><circle cx="63" cy="305" r="12" fill="#5A5A5A"/><circle cx="63" cy="305" r="12" fill="#5A5A5A"/><circle cx="63" cy="305" r="12" fill="#5A5A5A"/><circle cx="63" cy="305" r="12" fill="#5A5A5A"/><circle cx="63" cy="305" r="12" fill="#5A5A5A"/><circle cx="422" cy="104" r="12" fill="#5A5A5A"/><circle cx="422" cy="104" r="12" fill="#5A5A5A"/><circle cx="422" cy="104" r="12" fill="#5A5A5A"/><circle cx="422" cy="104" r="12" fill="#5A5A5A"/><circle cx="422" cy="104" r="12" fill="#5A5A5A"/><circle cx="422" cy="104" r="12" fill="#5A5A5A"/><circle cx="422" cy="104" r="12" fill="#5A5A5A"/><circle cx="422" cy="104" r="12" fill="#5A5A5A"/><circle cx="422" cy="104" r="12" fill="#5A5A5A"/><circle cx="422" cy="104" r="12" fill="#5A5A5A"/><circle cx="422" cy="104" r="12" fill="#5A5A5A"/><circle cx="422" cy="104" r="12" fill="#5A5A5A"/><circle cx="422" cy="104" r="12" fill="#5A5A5A"/><circle cx="422" cy="104" r="12" fill="#5A5A5A"/><circle cx="422" cy="104" r="12" fill="#5A5A5A"/><circle cx="422" cy="104" r="12" fill="#5A5A5A"/><circle cx="422" cy="104" r="12" fill="#5A5A5A"/><circle cx="422" cy="104" r="12" fill="#5A5A5A"/><circle cx="422" cy="104" r="12" fill="#5A5A5A"/><circle cx="422" cy="104" r="12" fill="#5A5A5A"/><circle cx="506" cy="276" r="12" fill="#5A5A5A"/><circle cx="506" cy="276" r="12" fill="#5A5A5A"/><circle cx="506" cy="276" r="12" fill="#5A5A5A"/><circle cx="506" cy="276" r="12" fill="#5A5A5A"/><circle cx="506" cy="276" r="12" fill="#5A5A5A"/><circle cx="506" cy="276" r="12" fill="#5A5A5A"/><circle cx="506" cy="276" r="12" fill="#5A5A5A"/><circle cx="506" cy="276" r="12" fill="#5A5A5A"/><circle cx="506" cy="276" r="12" fill="#5A5A5A"/><circle cx="506" cy="276" r="12" fill="#5A5A5A"/><circle cx="494" cy="230" r="12" fill="#5A5A5A"/><circle cx="494" cy="230" r="12" fill="#5A5A5A"/><circle cx="494" cy="230" r="12" fill="#5A5A5A"/><circle cx="494" cy="230" r="12" fill="#5A5A5A"/><circle cx="494" cy="230" r="12" fill="#5A5A5A"/><circle cx="494" cy="230" r="12" fill="#5A5A5A"/><circle cx="494" cy="230" r="12" fill="#5A5A5A"/><circle cx="494" cy="230" r="12" fill="#5A5A5A"/><circle cx="494" cy="230" r="12" fill="#5A5A5A"/><circle cx="494" cy="230" r="12" fill="#5A5A5A"/><circle cx="446" cy="242" r="12" fill="#5A5A5A"/><circle cx="446" cy="242" r="12" fill="#5A5A5A"/><circle cx="446" cy="242" r="12" fill="#5A5A5A"/><circle cx="446" cy="242" r="12" fill="#5A5A5A"/><circle cx="446" cy="242" r="12" fill="#5A5A5A"/><circle cx="446" cy="242" r="12" fill="#5A5A5A"/><circle cx="446" cy="242" r="12" fill="#5A5A5A"/><circle cx="446" cy="242" r="12" fill="#5A5A5A"/><circle cx="446" cy="242" r="12" fill="#5A5A5A"/><circle cx="446" cy="242" r="12" fill="#5A5A5A"/><circle cx="464" cy="305" r="12" fill="#5A5A5A"/><circle cx="464" cy="305" r="12" fill="#5A5A5A"/><circle cx="464" cy="305" r="12" fill="#5A5A5A"/><circle cx="464" cy="305" r="12" fill="#5A5A5A"/><circle cx="464" cy="305" r="12" fill="#5A5A5A"/><circle cx="464" cy="305" r="12" fill="#5A5A5A"/><circle cx="464" cy="305" r="12" fill="#5A5A5A"/><circle cx="464" cy="305" r="12" fill="#5A5A5A"/><circle cx="464" cy="305" r="12" fill="#5A5A5A"/><circle cx="464" cy="305" r="12" fill="#5A5A5A"/><circle cx="353" cy="317" r="12" fill="#5A5A5A"/><circle cx="353" cy="317" r="12" fill="#5A5A5A"/><circle cx="353" cy="317" r="12" fill="#5A5A5A"/><circle cx="353" cy="317" r="12" fill="#5A5A5A"/><circle cx="353" cy="317" r="12" fill="#5A5A5A"/><circle cx="353" cy="317" r="12" fill="#5A5A5A"/><circle cx="353" cy="317" r="12" fill="#5A5A5A"/><circle cx="353" cy="317" r="12" fill="#5A5A5A"/><circle cx="353" cy="317" r="12" fill="#5A5A5A"/><circle cx="353" cy="317" r="12" fill="#5A5A5A"/><circle cx="307" cy="281" r="12" fill="#5A5A5A"/><circle cx="307" cy="281" r="12" fill="#5A5A5A"/><circle cx="307" cy="281" r="12" fill="#5A5A5A"/><circle cx="307" cy="281" r="12" fill="#5A5A5A"/><circle cx="307" cy="281" r="12" fill="#5A5A5A"/><circle cx="307" cy="281" r="12" fill="#5A5A5A"/><circle cx="307" cy="281" r="12" fill="#5A5A5A"/><circle cx="307" cy="281" r="12" fill="#5A5A5A"/><circle cx="307" cy="281" r="12" fill="#5A5A5A"/><circle cx="307" cy="281" r="12" fill="#5A5A5A"/><circle cx="251" cy="317" r="12" fill="#5A5A5A"/><circle cx="251" cy="317" r="12" fill="#5A5A5A"/><circle cx="251" cy="317" r="12" fill="#5A5A5A"/><circle cx="251" cy="317" r="12" fill="#5A5A5A"/><circle cx="251" cy="317" r="12" fill="#5A5A5A"/><circle cx="251" cy="317" r="12" fill="#5A5A5A"/><circle cx="251" cy="317" r="12" fill="#5A5A5A"/><circle cx="251" cy="317" r="12" fill="#5A5A5A"/><circle cx="251" cy="317" r="12" fill="#5A5A5A"/><circle cx="251" cy="317" r="12" fill="#5A5A5A"/><circle cx="186" cy="300" r="12" fill="#5A5A5A"/><circle cx="186" cy="300" r="12" fill="#5A5A5A"/><circle cx="186" cy="300" r="12" fill="#5A5A5A"/><circle cx="186" cy="300" r="12" fill="#5A5A5A"/><circle cx="186" cy="300" r="12" fill="#5A5A5A"/><circle cx="186" cy="300" r="12" fill="#5A5A5A"/><circle cx="186" cy="300" r="12" fill="#5A5A5A"/><circle cx="186" cy="300" r="12" fill="#5A5A5A"/><circle cx="186" cy="300" r="12" fill="#5A5A5A"/><circle cx="186" cy="300" r="12" fill="#5A5A5A"/><circle cx="155" cy="322" r="12" fill="#5A5A5A"/><circle cx="155" cy="322" r="12" fill="#5A5A5A"/><circle cx="155" cy="322" r="12" fill="#5A5A5A"/><circle cx="155" cy="322" r="12" fill="#5A5A5A"/><circle cx="155" cy="322" r="12" fill="#5A5A5A"/><circle cx="155" cy="322" r="12" fill="#5A5A5A"/><circle cx="155" cy="322" r="12" fill="#5A5A5A"/><circle cx="155" cy="322" r="12" fill="#5A5A5A"/><circle cx="155" cy="322" r="12" fill="#5A5A5A"/><circle cx="155" cy="322" r="12" fill="#5A5A5A"/><circle cx="123" cy="287" r="12" fill="#5A5A5A"/><circle cx="123" cy="287" r="12" fill="#5A5A5A"/><circle cx="123" cy="287" r="12" fill="#5A5A5A"/><circle cx="123" cy="287" r="12" fill="#5A5A5A"/><circle cx="123" cy="287" r="12" fill="#5A5A5A"/><circle cx="123" cy="287" r="12" fill="#5A5A5A"/><circle cx="123" cy="287" r="12" fill="#5A5A5A"/><circle cx="123" cy="287" r="12" fill="#5A5A5A"/><circle cx="123" cy="287" r="12" fill="#5A5A5A"/><circle cx="123" cy="287" r="12" fill="#5A5A5A"/><circle cx="494" cy="53" r="12" fill="#5A5A5A"/><circle cx="494" cy="53" r="12" fill="#5A5A5A"/><circle cx="494" cy="53" r="12" fill="#5A5A5A"/><circle cx="494" cy="53" r="12" fill="#5A5A5A"/><circle cx="494" cy="53" r="12" fill="#5A5A5A"/><circle cx="494" cy="53" r="12" fill="#5A5A5A"/><circle cx="494" cy="53" r="12" fill="#5A5A5A"/><circle cx="494" cy="53" r="12" fill="#5A5A5A"/><circle cx="494" cy="53" r="12" fill="#5A5A5A"/><circle cx="494" cy="53" r="12" fill="#5A5A5A"/><circle cx="384" cy="263" r="12" fill="#5A5A5A"/><circle cx="384" cy="263" r="12" fill="#5A5A5A"/><circle cx="384" cy="263" r="12" fill="#5A5A5A"/><circle cx="384" cy="263" r="12" fill="#5A5A5A"/><circle cx="384" cy="263" r="12" fill="#5A5A5A"/><circle cx="384" cy="263" r="12" fill="#5A5A5A"/><circle cx="384" cy="263" r="12" fill="#5A5A5A"/><circle cx="384" cy="263" r="12" fill="#5A5A5A"/><circle cx="384" cy="263" r="12" fill="#5A5A5A"/><circle cx="384" cy="263" r="12" fill="#5A5A5A"/><circle cx="440" cy="201" r="12" fill="#5A5A5A"/><circle cx="440" cy="201" r="12" fill="#5A5A5A"/><circle cx="440" cy="201" r="12" fill="#5A5A5A"/><circle cx="440" cy="201" r="12" fill="#5A5A5A"/><circle cx="440" cy="201" r="12" fill="#5A5A5A"/><circle cx="440" cy="201" r="12" fill="#5A5A5A"/><circle cx="440" cy="201" r="12" fill="#5A5A5A"/><circle cx="440" cy="201" r="12" fill="#5A5A5A"/><circle cx="440" cy="201" r="12" fill="#5A5A5A"/><circle cx="440" cy="201" r="12" fill="#5A5A5A"/><circle cx="518" cy="157" r="12" fill="#5A5A5A"/><circle cx="518" cy="157" r="12" fill="#5A5A5A"/><circle cx="518" cy="157" r="12" fill="#5A5A5A"/><circle cx="518" cy="157" r="12" fill="#5A5A5A"/><circle cx="518" cy="157" r="12" fill="#5A5A5A"/><circle cx="518" cy="157" r="12" fill="#5A5A5A"/><circle cx="518" cy="157" r="12" fill="#5A5A5A"/><circle cx="518" cy="157" r="12" fill="#5A5A5A"/><circle cx="518" cy="157" r="12" fill="#5A5A5A"/><circle cx="518" cy="157" r="12" fill="#5A5A5A"/><circle cx="506" cy="92" r="12" fill="#5A5A5A"/><circle cx="506" cy="92" r="12" fill="#5A5A5A"/><circle cx="506" cy="92" r="12" fill="#5A5A5A"/><circle cx="506" cy="92" r="12" fill="#5A5A5A"/><circle cx="506" cy="92" r="12" fill="#5A5A5A"/><circle cx="506" cy="92" r="12" fill="#5A5A5A"/><circle cx="506" cy="92" r="12" fill="#5A5A5A"/><circle cx="506" cy="92" r="12" fill="#5A5A5A"/><circle cx="506" cy="92" r="12" fill="#5A5A5A"/><circle cx="506" cy="92" r="12" fill="#5A5A5A"/><circle cx="87" cy="181" r="12" fill="#5A5A5A"/><circle cx="87" cy="181" r="12" fill="#5A5A5A"/><circle cx="87" cy="181" r="12" fill="#5A5A5A"/><circle cx="87" cy="181" r="12" fill="#5A5A5A"/><circle cx="87" cy="181" r="12" fill="#5A5A5A"/><circle cx="87" cy="181" r="12" fill="#5A5A5A"/><circle cx="87" cy="181" r="12" fill="#5A5A5A"/><circle cx="87" cy="181" r="12" fill="#5A5A5A"/><circle cx="87" cy="181" r="12" fill="#5A5A5A"/><circle cx="87" cy="181" r="12" fill="#5A5A5A"/><circle cx="41" cy="166" r="12" fill="#5A5A5A"/><circle cx="41" cy="166" r="12" fill="#5A5A5A"/><circle cx="41" cy="166" r="12" fill="#5A5A5A"/><circle cx="41" cy="166" r="12" fill="#5A5A5A"/><circle cx="41" cy="166" r="12" fill="#5A5A5A"/><circle cx="41" cy="166" r="12" fill="#5A5A5A"/><circle cx="41" cy="166" r="12" fill="#5A5A5A"/><circle cx="41" cy="166" r="12" fill="#5A5A5A"/><circle cx="41" cy="166" r="12" fill="#5A5A5A"/><circle cx="41" cy="166" r="12" fill="#5A5A5A"/><circle cx="53" cy="230" r="12" fill="#5A5A5A"/><circle cx="53" cy="230" r="12" fill="#5A5A5A"/><circle cx="53" cy="230" r="12" fill="#5A5A5A"/><circle cx="53" cy="230" r="12" fill="#5A5A5A"/><circle cx="53" cy="230" r="12" fill="#5A5A5A"/><circle cx="53" cy="230" r="12" fill="#5A5A5A"/><circle cx="53" cy="230" r="12" fill="#5A5A5A"/><circle cx="53" cy="230" r="12" fill="#5A5A5A"/><circle cx="53" cy="230" r="12" fill="#5A5A5A"/><circle cx="53" cy="230" r="12" fill="#5A5A5A"/><circle cx="147" cy="218" r="12" fill="#5A5A5A"/><circle cx="147" cy="218" r="12" fill="#5A5A5A"/><circle cx="147" cy="218" r="12" fill="#5A5A5A"/><circle cx="147" cy="218" r="12" fill="#5A5A5A"/><circle cx="147" cy="218" r="12" fill="#5A5A5A"/><circle cx="147" cy="218" r="12" fill="#5A5A5A"/><circle cx="147" cy="218" r="12" fill="#5A5A5A"/><circle cx="147" cy="218" r="12" fill="#5A5A5A"/><circle cx="147" cy="218" r="12" fill="#5A5A5A"/><circle cx="147" cy="218" r="12" fill="#5A5A5A"/><circle cx="135" cy="152" r="12" fill="#5A5A5A"/><circle cx="135" cy="152" r="12" fill="#5A5A5A"/><circle cx="135" cy="152" r="12" fill="#5A5A5A"/><circle cx="135" cy="152" r="12" fill="#5A5A5A"/><circle cx="135" cy="152" r="12" fill="#5A5A5A"/><circle cx="135" cy="152" r="12" fill="#5A5A5A"/><circle cx="135" cy="152" r="12" fill="#5A5A5A"/><circle cx="135" cy="152" r="12" fill="#5A5A5A"/><circle cx="135" cy="152" r="12" fill="#5A5A5A"/><circle cx="135" cy="152" r="12" fill="#5A5A5A"/><circle cx="111" cy="36" r="12" fill="#5A5A5A"/><circle cx="111" cy="36" r="12" fill="#5A5A5A"/><circle cx="111" cy="36" r="12" fill="#5A5A5A"/><circle cx="111" cy="36" r="12" fill="#5A5A5A"/><circle cx="111" cy="36" r="12" fill="#5A5A5A"/><circle cx="111" cy="36" r="12" fill="#5A5A5A"/><circle cx="111" cy="36" r="12" fill="#5A5A5A"/><circle cx="111" cy="36" r="12" fill="#5A5A5A"/><circle cx="111" cy="36" r="12" fill="#5A5A5A"/><circle cx="111" cy="36" r="12" fill="#5A5A5A"/><circle cx="295" cy="218" r="12" fill="#5A5A5A"/><circle cx="295" cy="218" r="12" fill="#5A5A5A"/><circle cx="295" cy="218" r="12" fill="#5A5A5A"/><circle cx="295" cy="218" r="12" fill="#5A5A5A"/><circle cx="295" cy="218" r="12" fill="#5A5A5A"/><circle cx="295" cy="218" r="12" fill="#5A5A5A"/><circle cx="295" cy="218" r="12" fill="#5A5A5A"/><circle cx="295" cy="218" r="12" fill="#5A5A5A"/><circle cx="295" cy="218" r="12" fill="#5A5A5A"/><circle cx="295" cy="218" r="12" fill="#5A5A5A"/><circle cx="283" cy="169" r="12" fill="#5A5A5A"/><circle cx="283" cy="169" r="12" fill="#5A5A5A"/><circle cx="283" cy="169" r="12" fill="#5A5A5A"/><circle cx="283" cy="169" r="12" fill="#5A5A5A"/><circle cx="283" cy="169" r="12" fill="#5A5A5A"/><circle cx="283" cy="169" r="12" fill="#5A5A5A"/><circle cx="283" cy="169" r="12" fill="#5A5A5A"/><circle cx="283" cy="169" r="12" fill="#5A5A5A"/><circle cx="283" cy="169" r="12" fill="#5A5A5A"/><circle cx="283" cy="169" r="12" fill="#5A5A5A"/><circle cx="239" cy="185" r="12" fill="#5A5A5A"/><circle cx="239" cy="185" r="12" fill="#5A5A5A"/><circle cx="239" cy="185" r="12" fill="#5A5A5A"/><circle cx="239" cy="185" r="12" fill="#5A5A5A"/><circle cx="239" cy="185" r="12" fill="#5A5A5A"/><circle cx="239" cy="185" r="12" fill="#5A5A5A"/><circle cx="239" cy="185" r="12" fill="#5A5A5A"/><circle cx="239" cy="185" r="12" fill="#5A5A5A"/><circle cx="239" cy="185" r="12" fill="#5A5A5A"/><circle cx="239" cy="185" r="12" fill="#5A5A5A"/><circle cx="470" cy="145" r="12" fill="#5A5A5A"/><circle cx="470" cy="145" r="12" fill="#5A5A5A"/><circle cx="470" cy="145" r="12" fill="#5A5A5A"/><circle cx="470" cy="145" r="12" fill="#5A5A5A"/><circle cx="470" cy="145" r="12" fill="#5A5A5A"/><circle cx="470" cy="145" r="12" fill="#5A5A5A"/><circle cx="470" cy="145" r="12" fill="#5A5A5A"/><circle cx="470" cy="145" r="12" fill="#5A5A5A"/><circle cx="470" cy="145" r="12" fill="#5A5A5A"/><circle cx="470" cy="145" r="12" fill="#5A5A5A"/><circle cx="162" cy="53" r="12" fill="#5A5A5A"/><circle cx="162" cy="53" r="12" fill="#5A5A5A"/><circle cx="162" cy="53" r="12" fill="#5A5A5A"/><circle cx="162" cy="53" r="12" fill="#5A5A5A"/><circle cx="162" cy="53" r="12" fill="#5A5A5A"/><circle cx="162" cy="53" r="12" fill="#5A5A5A"/><circle cx="162" cy="53" r="12" fill="#5A5A5A"/><circle cx="162" cy="53" r="12" fill="#5A5A5A"/><circle cx="162" cy="53" r="12" fill="#5A5A5A"/><circle cx="162" cy="53" r="12" fill="#5A5A5A"/><circle cx="123" cy="104" r="12" fill="#5A5A5A"/><circle cx="123" cy="104" r="12" fill="#5A5A5A"/><circle cx="123" cy="104" r="12" fill="#5A5A5A"/><circle cx="123" cy="104" r="12" fill="#5A5A5A"/><circle cx="123" cy="104" r="12" fill="#5A5A5A"/><circle cx="123" cy="104" r="12" fill="#5A5A5A"/><circle cx="123" cy="104" r="12" fill="#5A5A5A"/><circle cx="123" cy="104" r="12" fill="#5A5A5A"/><circle cx="123" cy="104" r="12" fill="#5A5A5A"/><circle cx="123" cy="104" r="12" fill="#5A5A5A"/><circle cx="410" cy="36" r="12" fill="#5A5A5A"/><circle cx="410" cy="36" r="12" fill="#5A5A5A"/><circle cx="410" cy="36" r="12" fill="#5A5A5A"/><circle cx="410" cy="36" r="12" fill="#5A5A5A"/><circle cx="410" cy="36" r="12" fill="#5A5A5A"/><circle cx="410" cy="36" r="12" fill="#5A5A5A"/><circle cx="410" cy="36" r="12" fill="#5A5A5A"/><circle cx="410" cy="36" r="12" fill="#5A5A5A"/><circle cx="410" cy="36" r="12" fill="#5A5A5A"/><circle cx="410" cy="36" r="12" fill="#5A5A5A"/><circle cx="53" cy="65" r="12" fill="#5A5A5A"/><circle cx="53" cy="65" r="12" fill="#5A5A5A"/><circle cx="53" cy="65" r="12" fill="#5A5A5A"/><circle cx="53" cy="65" r="12" fill="#5A5A5A"/><circle cx="53" cy="65" r="12" fill="#5A5A5A"/><circle cx="53" cy="65" r="12" fill="#5A5A5A"/><circle cx="53" cy="65" r="12" fill="#5A5A5A"/><circle cx="53" cy="65" r="12" fill="#5A5A5A"/><circle cx="53" cy="65" r="12" fill="#5A5A5A"/><circle cx="53" cy="65" r="12" fill="#5A5A5A"/><circle cx="368" cy="70" r="12" fill="#5A5A5A"/><circle cx="368" cy="70" r="12" fill="#5A5A5A"/><circle cx="368" cy="70" r="12" fill="#5A5A5A"/><circle cx="368" cy="70" r="12" fill="#5A5A5A"/><circle cx="368" cy="70" r="12" fill="#5A5A5A"/><circle cx="368" cy="70" r="12" fill="#5A5A5A"/><circle cx="368" cy="70" r="12" fill="#5A5A5A"/><circle cx="368" cy="70" r="12" fill="#5A5A5A"/><circle cx="368" cy="70" r="12" fill="#5A5A5A"/><circle cx="368" cy="70" r="12" fill="#5A5A5A"/><circle cx="315" cy="53" r="12" fill="#5A5A5A"/><circle cx="315" cy="53" r="12" fill="#5A5A5A"/><circle cx="315" cy="53" r="12" fill="#5A5A5A"/><circle cx="315" cy="53" r="12" fill="#5A5A5A"/><circle cx="315" cy="53" r="12" fill="#5A5A5A"/><circle cx="315" cy="53" r="12" fill="#5A5A5A"/><circle cx="315" cy="53" r="12" fill="#5A5A5A"/><circle cx="315" cy="53" r="12" fill="#5A5A5A"/><circle cx="315" cy="53" r="12" fill="#5A5A5A"/><circle cx="315" cy="53" r="12" fill="#5A5A5A"/><circle cx="271" cy="104" r="12" fill="#5A5A5A"/><circle cx="271" cy="104" r="12" fill="#5A5A5A"/><circle cx="271" cy="104" r="12" fill="#5A5A5A"/><circle cx="271" cy="104" r="12" fill="#5A5A5A"/><circle cx="271" cy="104" r="12" fill="#5A5A5A"/><circle cx="271" cy="104" r="12" fill="#5A5A5A"/><circle cx="271" cy="104" r="12" fill="#5A5A5A"/><circle cx="271" cy="104" r="12" fill="#5A5A5A"/><circle cx="271" cy="104" r="12" fill="#5A5A5A"/><circle cx="271" cy="104" r="12" fill="#5A5A5A"/><circle cx="215" cy="70" r="12" fill="#5A5A5A"/><circle cx="215" cy="70" r="12" fill="#5A5A5A"/><circle cx="215" cy="70" r="12" fill="#5A5A5A"/><circle cx="215" cy="70" r="12" fill="#5A5A5A"/><circle cx="215" cy="70" r="12" fill="#5A5A5A"/><circle cx="215" cy="70" r="12" fill="#5A5A5A"/><circle cx="215" cy="70" r="12" fill="#5A5A5A"/><circle cx="215" cy="70" r="12" fill="#5A5A5A"/><circle cx="215" cy="70" r="12" fill="#5A5A5A"/><circle cx="215" cy="70" r="12" fill="#5A5A5A"/><circle cx="176" cy="123" r="12" fill="#5A5A5A"/><circle cx="176" cy="123" r="12" fill="#5A5A5A"/><circle cx="176" cy="123" r="12" fill="#5A5A5A"/><circle cx="176" cy="123" r="12" fill="#5A5A5A"/><circle cx="176" cy="123" r="12" fill="#5A5A5A"/><circle cx="176" cy="123" r="12" fill="#5A5A5A"/><circle cx="176" cy="123" r="12" fill="#5A5A5A"/><circle cx="176" cy="123" r="12" fill="#5A5A5A"/><circle cx="176" cy="123" r="12" fill="#5A5A5A"/><circle cx="176" cy="123" r="12" fill="#5A5A5A"/><circle cx="257" cy="41" r="12" fill="#5A5A5A"/><circle cx="257" cy="41" r="12" fill="#5A5A5A"/><circle cx="257" cy="41" r="12" fill="#5A5A5A"/><circle cx="257" cy="41" r="12" fill="#5A5A5A"/><circle cx="257" cy="41" r="12" fill="#5A5A5A"/><circle cx="257" cy="41" r="12" fill="#5A5A5A"/><circle cx="257" cy="41" r="12" fill="#5A5A5A"/><circle cx="257" cy="41" r="12" fill="#5A5A5A"/><circle cx="257" cy="41" r="12" fill="#5A5A5A"/><circle cx="257" cy="41" r="12" fill="#5A5A5A"/><circle cx="75" cy="113" r="12" fill="#5A5A5A"/><circle cx="75" cy="113" r="12" fill="#5A5A5A"/><circle cx="75" cy="113" r="12" fill="#5A5A5A"/><circle cx="75" cy="113" r="12" fill="#5A5A5A"/><circle cx="75" cy="113" r="12" fill="#5A5A5A"/><circle cx="75" cy="113" r="12" fill="#5A5A5A"/><circle cx="75" cy="113" r="12" fill="#5A5A5A"/><circle cx="75" cy="113" r="12" fill="#5A5A5A"/><circle cx="75" cy="113" r="12" fill="#5A5A5A"/><circle cx="75" cy="113" r="12" fill="#5A5A5A"/><circle cx="365.5" cy="174.5" r="34.5" fill="#AB84FE"/><path fill="#000" d="M348.14 178L349 165.76H350.78L350.02 176.54L355.26 176.48L354.96 178H348.14ZM362.27 178L359.55 168.12L358.13 178H356.49L358.43 165.76H360.55L363.29 175.56L367.35 165.76H369.43L369.67 178H367.97L367.81 168.24L363.95 177.66L363.87 177.64V177.66L362.27 178ZM379.782 176.12L380.122 177.46C378.788 177.98 377.508 178.24 376.282 178.24C375.042 178.24 373.982 177.787 373.102 176.88C372.222 175.96 371.782 174.647 371.782 172.94C371.782 171.62 371.982 170.42 372.382 169.34C372.782 168.247 373.435 167.34 374.342 166.62C375.262 165.887 376.368 165.52 377.662 165.52C378.728 165.52 379.742 165.713 380.702 166.1L380.222 167.62C379.062 167.22 377.968 167.02 376.942 167.02C374.795 167.02 373.695 168.9 373.642 172.66C373.628 174.007 373.935 175.027 374.562 175.72C375.202 176.4 375.942 176.74 376.782 176.74C377.635 176.74 378.635 176.533 379.782 176.12Z"/><path fill="#444343" d="M459.061 175.061C459.646 174.475 459.646 173.525 459.061 172.939L449.515 163.393C448.929 162.808 447.979 162.808 447.393 163.393C446.808 163.979 446.808 164.929 447.393 165.515L455.879 174L447.393 182.485C446.808 183.071 446.808 184.021 447.393 184.607C447.979 185.192 448.929 185.192 449.515 184.607L459.061 175.061ZM400 175.5H458V172.5H400V175.5Z"/><path fill="#000" d="M418.516 165H415.24L414.124 149.016L417.004 148.512L417.868 162.48C420.268 159.744 421.96 155.184 422.944 148.8H425.572C425.284 151.728 424.504 154.776 423.232 157.944C421.984 161.088 420.412 163.44 418.516 165Z"/></svg>