<svg width="566" height="357" viewBox="0 0 566 357" fill="none" xmlns="http://www.w3.org/2000/svg">
<rect width="566" height="357" fill="white"/>
<g opacity="0.66" filter="url(#filter0_d_1_125)">
<rect x="20" y="106" width="302" height="113" fill="#FCDDEC"/>
<rect x="21.5" y="107.5" width="299" height="110" stroke="#EF5DA8" stroke-width="3"/>
</g>
<circle cx="69" cy="56" r="12" fill="#5A5A5A"/>
<circle cx="69" cy="56" r="12" fill="#5A5A5A"/>
<circle cx="69" cy="56" r="12" fill="#5A5A5A"/>
<circle cx="69" cy="56" r="12" fill="#5A5A5A"/>
<circle cx="69" cy="56" r="12" fill="#5A5A5A"/>
<circle cx="69" cy="56" r="12" fill="#5A5A5A"/>
<circle cx="69" cy="56" r="12" fill="#5A5A5A"/>
<circle cx="69" cy="56" r="12" fill="#5A5A5A"/>
<circle cx="69" cy="56" r="12" fill="#5A5A5A"/>
<circle cx="69" cy="56" r="12" fill="#5A5A5A"/>
<circle cx="334" cy="43" r="12" fill="#5A5A5A"/>
<circle cx="334" cy="43" r="12" fill="#5A5A5A"/>
<circle cx="334" cy="43" r="12" fill="#5A5A5A"/>
<circle cx="334" cy="43" r="12" fill="#5A5A5A"/>
<circle cx="334" cy="43" r="12" fill="#5A5A5A"/>
<circle cx="334" cy="43" r="12" fill="#5A5A5A"/>
<circle cx="334" cy="43" r="12" fill="#5A5A5A"/>
<circle cx="334" cy="43" r="12" fill="#5A5A5A"/>
<circle cx="334" cy="43" r="12" fill="#5A5A5A"/>
<circle cx="334" cy="43" r="12" fill="#5A5A5A"/>
<circle cx="52" cy="158" r="12" fill="#5A5A5A"/>
<circle cx="52" cy="158" r="12" fill="#5A5A5A"/>
<circle cx="52" cy="158" r="12" fill="#5A5A5A"/>
<circle cx="52" cy="158" r="12" fill="#5A5A5A"/>
<circle cx="52" cy="158" r="12" fill="#5A5A5A"/>
<circle cx="52" cy="158" r="12" fill="#5A5A5A"/>
<circle cx="52" cy="158" r="12" fill="#5A5A5A"/>
<circle cx="52" cy="158" r="12" fill="#5A5A5A"/>
<circle cx="52" cy="158" r="12" fill="#5A5A5A"/>
<circle cx="52" cy="158" r="12" fill="#5A5A5A"/>
<circle cx="87" cy="191" r="12" fill="#5A5A5A"/>
<circle cx="87" cy="191" r="12" fill="#5A5A5A"/>
<circle cx="87" cy="191" r="12" fill="#5A5A5A"/>
<circle cx="87" cy="191" r="12" fill="#5A5A5A"/>
<circle cx="87" cy="191" r="12" fill="#5A5A5A"/>
<circle cx="87" cy="191" r="12" fill="#5A5A5A"/>
<circle cx="87" cy="191" r="12" fill="#5A5A5A"/>
<circle cx="87" cy="191" r="12" fill="#5A5A5A"/>
<circle cx="87" cy="191" r="12" fill="#5A5A5A"/>
<circle cx="87" cy="191" r="12" fill="#5A5A5A"/>
<circle cx="93" cy="134" r="12" fill="#5A5A5A"/>
<circle cx="93" cy="134" r="12" fill="#5A5A5A"/>
<circle cx="93" cy="134" r="12" fill="#5A5A5A"/>
<circle cx="93" cy="134" r="12" fill="#5A5A5A"/>
<circle cx="93" cy="134" r="12" fill="#5A5A5A"/>
<circle cx="93" cy="134" r="12" fill="#5A5A5A"/>
<circle cx="93" cy="134" r="12" fill="#5A5A5A"/>
<circle cx="93" cy="134" r="12" fill="#5A5A5A"/>
<circle cx="93" cy="134" r="12" fill="#5A5A5A"/>
<circle cx="93" cy="134" r="12" fill="#5A5A5A"/>
<circle cx="122" cy="173" r="12" fill="#5A5A5A"/>
<circle cx="122" cy="173" r="12" fill="#5A5A5A"/>
<circle cx="122" cy="173" r="12" fill="#5A5A5A"/>
<circle cx="122" cy="173" r="12" fill="#5A5A5A"/>
<circle cx="122" cy="173" r="12" fill="#5A5A5A"/>
<circle cx="122" cy="173" r="12" fill="#5A5A5A"/>
<circle cx="122" cy="173" r="12" fill="#5A5A5A"/>
<circle cx="122" cy="173" r="12" fill="#5A5A5A"/>
<circle cx="122" cy="173" r="12" fill="#5A5A5A"/>
<circle cx="122" cy="173" r="12" fill="#5A5A5A"/>
<circle cx="149" cy="140" r="12" fill="#5A5A5A"/>
<circle cx="149" cy="140" r="12" fill="#5A5A5A"/>
<circle cx="149" cy="140" r="12" fill="#5A5A5A"/>
<circle cx="149" cy="140" r="12" fill="#5A5A5A"/>
<circle cx="149" cy="140" r="12" fill="#5A5A5A"/>
<circle cx="149" cy="140" r="12" fill="#5A5A5A"/>
<circle cx="149" cy="140" r="12" fill="#5A5A5A"/>
<circle cx="149" cy="140" r="12" fill="#5A5A5A"/>
<circle cx="149" cy="140" r="12" fill="#5A5A5A"/>
<circle cx="149" cy="140" r="12" fill="#5A5A5A"/>
<circle cx="170" cy="174" r="12" fill="#5A5A5A"/>
<circle cx="170" cy="174" r="12" fill="#5A5A5A"/>
<circle cx="170" cy="174" r="12" fill="#5A5A5A"/>
<circle cx="170" cy="174" r="12" fill="#5A5A5A"/>
<circle cx="170" cy="174" r="12" fill="#5A5A5A"/>
<circle cx="170" cy="174" r="12" fill="#5A5A5A"/>
<circle cx="170" cy="174" r="12" fill="#5A5A5A"/>
<circle cx="170" cy="174" r="12" fill="#5A5A5A"/>
<circle cx="170" cy="174" r="12" fill="#5A5A5A"/>
<circle cx="170" cy="174" r="12" fill="#5A5A5A"/>
<circle cx="178" cy="125" r="12" fill="#5A5A5A"/>
<circle cx="178" cy="125" r="12" fill="#5A5A5A"/>
<circle cx="178" cy="125" r="12" fill="#5A5A5A"/>
<circle cx="178" cy="125" r="12" fill="#5A5A5A"/>
<circle cx="178" cy="125" r="12" fill="#5A5A5A"/>
<circle cx="178" cy="125" r="12" fill="#5A5A5A"/>
<circle cx="178" cy="125" r="12" fill="#5A5A5A"/>
<circle cx="178" cy="125" r="12" fill="#5A5A5A"/>
<circle cx="178" cy="125" r="12" fill="#5A5A5A"/>
<circle cx="178" cy="125" r="12" fill="#5A5A5A"/>
<circle cx="202" cy="140" r="12" fill="#5A5A5A"/>
<circle cx="202" cy="140" r="12" fill="#5A5A5A"/>
<circle cx="202" cy="140" r="12" fill="#5A5A5A"/>
<circle cx="202" cy="140" r="12" fill="#5A5A5A"/>
<circle cx="202" cy="140" r="12" fill="#5A5A5A"/>
<circle cx="202" cy="140" r="12" fill="#5A5A5A"/>
<circle cx="202" cy="140" r="12" fill="#5A5A5A"/>
<circle cx="202" cy="140" r="12" fill="#5A5A5A"/>
<circle cx="202" cy="140" r="12" fill="#5A5A5A"/>
<circle cx="202" cy="140" r="12" fill="#5A5A5A"/>
<circle cx="217" cy="176" r="12" fill="#5A5A5A"/>
<circle cx="217" cy="176" r="12" fill="#5A5A5A"/>
<circle cx="217" cy="176" r="12" fill="#5A5A5A"/>
<circle cx="217" cy="176" r="12" fill="#5A5A5A"/>
<circle cx="217" cy="176" r="12" fill="#5A5A5A"/>
<circle cx="217" cy="176" r="12" fill="#5A5A5A"/>
<circle cx="217" cy="176" r="12" fill="#5A5A5A"/>
<circle cx="217" cy="176" r="12" fill="#5A5A5A"/>
<circle cx="217" cy="176" r="12" fill="#5A5A5A"/>
<circle cx="217" cy="176" r="12" fill="#5A5A5A"/>
<circle cx="255" cy="173" r="12" fill="#5A5A5A"/>
<circle cx="255" cy="173" r="12" fill="#5A5A5A"/>
<circle cx="255" cy="173" r="12" fill="#5A5A5A"/>
<circle cx="255" cy="173" r="12" fill="#5A5A5A"/>
<circle cx="255" cy="173" r="12" fill="#5A5A5A"/>
<circle cx="255" cy="173" r="12" fill="#5A5A5A"/>
<circle cx="255" cy="173" r="12" fill="#5A5A5A"/>
<circle cx="255" cy="173" r="12" fill="#5A5A5A"/>
<circle cx="255" cy="173" r="12" fill="#5A5A5A"/>
<circle cx="255" cy="173" r="12" fill="#5A5A5A"/>
<circle cx="262" cy="129" r="12" fill="#5A5A5A"/>
<circle cx="262" cy="129" r="12" fill="#5A5A5A"/>
<circle cx="262" cy="129" r="12" fill="#5A5A5A"/>
<circle cx="262" cy="129" r="12" fill="#5A5A5A"/>
<circle cx="262" cy="129" r="12" fill="#5A5A5A"/>
<circle cx="262" cy="129" r="12" fill="#5A5A5A"/>
<circle cx="262" cy="129" r="12" fill="#5A5A5A"/>
<circle cx="262" cy="129" r="12" fill="#5A5A5A"/>
<circle cx="262" cy="129" r="12" fill="#5A5A5A"/>
<circle cx="262" cy="129" r="12" fill="#5A5A5A"/>
<circle cx="295" cy="153" r="12" fill="#5A5A5A"/>
<circle cx="295" cy="153" r="12" fill="#5A5A5A"/>
<circle cx="295" cy="153" r="12" fill="#5A5A5A"/>
<circle cx="295" cy="153" r="12" fill="#5A5A5A"/>
<circle cx="295" cy="153" r="12" fill="#5A5A5A"/>
<circle cx="295" cy="153" r="12" fill="#5A5A5A"/>
<circle cx="295" cy="153" r="12" fill="#5A5A5A"/>
<circle cx="295" cy="153" r="12" fill="#5A5A5A"/>
<circle cx="295" cy="153" r="12" fill="#5A5A5A"/>
<circle cx="295" cy="153" r="12" fill="#5A5A5A"/>
<circle cx="286" cy="186" r="12" fill="#5A5A5A"/>
<circle cx="286" cy="186" r="12" fill="#5A5A5A"/>
<circle cx="286" cy="186" r="12" fill="#5A5A5A"/>
<circle cx="286" cy="186" r="12" fill="#5A5A5A"/>
<circle cx="286" cy="186" r="12" fill="#5A5A5A"/>
<circle cx="286" cy="186" r="12" fill="#5A5A5A"/>
<circle cx="286" cy="186" r="12" fill="#5A5A5A"/>
<circle cx="286" cy="186" r="12" fill="#5A5A5A"/>
<circle cx="286" cy="186" r="12" fill="#5A5A5A"/>
<circle cx="286" cy="186" r="12" fill="#5A5A5A"/>
<circle cx="75" cy="296" r="12" fill="#5A5A5A"/>
<circle cx="75" cy="296" r="12" fill="#5A5A5A"/>
<circle cx="75" cy="296" r="12" fill="#5A5A5A"/>
<circle cx="75" cy="296" r="12" fill="#5A5A5A"/>
<circle cx="75" cy="296" r="12" fill="#5A5A5A"/>
<circle cx="75" cy="296" r="12" fill="#5A5A5A"/>
<circle cx="75" cy="296" r="12" fill="#5A5A5A"/>
<circle cx="75" cy="296" r="12" fill="#5A5A5A"/>
<circle cx="75" cy="296" r="12" fill="#5A5A5A"/>
<circle cx="75" cy="296" r="12" fill="#5A5A5A"/>
<circle cx="139" cy="279" r="12" fill="#5A5A5A"/>
<circle cx="139" cy="279" r="12" fill="#5A5A5A"/>
<circle cx="139" cy="279" r="12" fill="#5A5A5A"/>
<circle cx="139" cy="279" r="12" fill="#5A5A5A"/>
<circle cx="139" cy="279" r="12" fill="#5A5A5A"/>
<circle cx="139" cy="279" r="12" fill="#5A5A5A"/>
<circle cx="139" cy="279" r="12" fill="#5A5A5A"/>
<circle cx="139" cy="279" r="12" fill="#5A5A5A"/>
<circle cx="139" cy="279" r="12" fill="#5A5A5A"/>
<circle cx="139" cy="279" r="12" fill="#5A5A5A"/>
<circle cx="169" cy="313" r="12" fill="#5A5A5A"/>
<circle cx="169" cy="313" r="12" fill="#5A5A5A"/>
<circle cx="169" cy="313" r="12" fill="#5A5A5A"/>
<circle cx="169" cy="313" r="12" fill="#5A5A5A"/>
<circle cx="169" cy="313" r="12" fill="#5A5A5A"/>
<circle cx="169" cy="313" r="12" fill="#5A5A5A"/>
<circle cx="169" cy="313" r="12" fill="#5A5A5A"/>
<circle cx="169" cy="313" r="12" fill="#5A5A5A"/>
<circle cx="169" cy="313" r="12" fill="#5A5A5A"/>
<circle cx="169" cy="313" r="12" fill="#5A5A5A"/>
<circle cx="203" cy="291" r="12" fill="#5A5A5A"/>
<circle cx="203" cy="291" r="12" fill="#5A5A5A"/>
<circle cx="203" cy="291" r="12" fill="#5A5A5A"/>
<circle cx="203" cy="291" r="12" fill="#5A5A5A"/>
<circle cx="203" cy="291" r="12" fill="#5A5A5A"/>
<circle cx="203" cy="291" r="12" fill="#5A5A5A"/>
<circle cx="203" cy="291" r="12" fill="#5A5A5A"/>
<circle cx="203" cy="291" r="12" fill="#5A5A5A"/>
<circle cx="203" cy="291" r="12" fill="#5A5A5A"/>
<circle cx="203" cy="291" r="12" fill="#5A5A5A"/>
<circle cx="267" cy="308" r="12" fill="#5A5A5A"/>
<circle cx="267" cy="308" r="12" fill="#5A5A5A"/>
<circle cx="267" cy="308" r="12" fill="#5A5A5A"/>
<circle cx="267" cy="308" r="12" fill="#5A5A5A"/>
<circle cx="267" cy="308" r="12" fill="#5A5A5A"/>
<circle cx="267" cy="308" r="12" fill="#5A5A5A"/>
<circle cx="267" cy="308" r="12" fill="#5A5A5A"/>
<circle cx="267" cy="308" r="12" fill="#5A5A5A"/>
<circle cx="267" cy="308" r="12" fill="#5A5A5A"/>
<circle cx="267" cy="308" r="12" fill="#5A5A5A"/>
<circle cx="262" cy="255" r="12" fill="#5A5A5A"/>
<circle cx="262" cy="255" r="12" fill="#5A5A5A"/>
<circle cx="262" cy="255" r="12" fill="#5A5A5A"/>
<circle cx="262" cy="255" r="12" fill="#5A5A5A"/>
<circle cx="262" cy="255" r="12" fill="#5A5A5A"/>
<circle cx="262" cy="255" r="12" fill="#5A5A5A"/>
<circle cx="262" cy="255" r="12" fill="#5A5A5A"/>
<circle cx="262" cy="255" r="12" fill="#5A5A5A"/>
<circle cx="262" cy="255" r="12" fill="#5A5A5A"/>
<circle cx="262" cy="255" r="12" fill="#5A5A5A"/>
<circle cx="326" cy="272" r="12" fill="#5A5A5A"/>
<circle cx="326" cy="272" r="12" fill="#5A5A5A"/>
<circle cx="326" cy="272" r="12" fill="#5A5A5A"/>
<circle cx="326" cy="272" r="12" fill="#5A5A5A"/>
<circle cx="326" cy="272" r="12" fill="#5A5A5A"/>
<circle cx="326" cy="272" r="12" fill="#5A5A5A"/>
<circle cx="326" cy="272" r="12" fill="#5A5A5A"/>
<circle cx="326" cy="272" r="12" fill="#5A5A5A"/>
<circle cx="326" cy="272" r="12" fill="#5A5A5A"/>
<circle cx="326" cy="272" r="12" fill="#5A5A5A"/>
<circle cx="367" cy="308" r="12" fill="#5A5A5A"/>
<circle cx="367" cy="308" r="12" fill="#5A5A5A"/>
<circle cx="367" cy="308" r="12" fill="#5A5A5A"/>
<circle cx="367" cy="308" r="12" fill="#5A5A5A"/>
<circle cx="367" cy="308" r="12" fill="#5A5A5A"/>
<circle cx="367" cy="308" r="12" fill="#5A5A5A"/>
<circle cx="367" cy="308" r="12" fill="#5A5A5A"/>
<circle cx="367" cy="308" r="12" fill="#5A5A5A"/>
<circle cx="367" cy="308" r="12" fill="#5A5A5A"/>
<circle cx="367" cy="308" r="12" fill="#5A5A5A"/>
<circle cx="479" cy="296" r="12" fill="#5A5A5A"/>
<circle cx="479" cy="296" r="12" fill="#5A5A5A"/>
<circle cx="479" cy="296" r="12" fill="#5A5A5A"/>
<circle cx="479" cy="296" r="12" fill="#5A5A5A"/>
<circle cx="479" cy="296" r="12" fill="#5A5A5A"/>
<circle cx="479" cy="296" r="12" fill="#5A5A5A"/>
<circle cx="479" cy="296" r="12" fill="#5A5A5A"/>
<circle cx="479" cy="296" r="12" fill="#5A5A5A"/>
<circle cx="479" cy="296" r="12" fill="#5A5A5A"/>
<circle cx="479" cy="296" r="12" fill="#5A5A5A"/>
<circle cx="522" cy="267" r="12" fill="#5A5A5A"/>
<circle cx="522" cy="267" r="12" fill="#5A5A5A"/>
<circle cx="522" cy="267" r="12" fill="#5A5A5A"/>
<circle cx="522" cy="267" r="12" fill="#5A5A5A"/>
<circle cx="522" cy="267" r="12" fill="#5A5A5A"/>
<circle cx="522" cy="267" r="12" fill="#5A5A5A"/>
<circle cx="522" cy="267" r="12" fill="#5A5A5A"/>
<circle cx="522" cy="267" r="12" fill="#5A5A5A"/>
<circle cx="522" cy="267" r="12" fill="#5A5A5A"/>
<circle cx="522" cy="267" r="12" fill="#5A5A5A"/>
<circle cx="399" cy="255" r="12" fill="#5A5A5A"/>
<circle cx="399" cy="255" r="12" fill="#5A5A5A"/>
<circle cx="399" cy="255" r="12" fill="#5A5A5A"/>
<circle cx="399" cy="255" r="12" fill="#5A5A5A"/>
<circle cx="399" cy="255" r="12" fill="#5A5A5A"/>
<circle cx="399" cy="255" r="12" fill="#5A5A5A"/>
<circle cx="399" cy="255" r="12" fill="#5A5A5A"/>
<circle cx="399" cy="255" r="12" fill="#5A5A5A"/>
<circle cx="399" cy="255" r="12" fill="#5A5A5A"/>
<circle cx="399" cy="255" r="12" fill="#5A5A5A"/>
<circle cx="465" cy="231" r="12" fill="#5A5A5A"/>
<circle cx="465" cy="231" r="12" fill="#5A5A5A"/>
<circle cx="465" cy="231" r="12" fill="#5A5A5A"/>
<circle cx="465" cy="231" r="12" fill="#5A5A5A"/>
<circle cx="465" cy="231" r="12" fill="#5A5A5A"/>
<circle cx="465" cy="231" r="12" fill="#5A5A5A"/>
<circle cx="465" cy="231" r="12" fill="#5A5A5A"/>
<circle cx="465" cy="231" r="12" fill="#5A5A5A"/>
<circle cx="465" cy="231" r="12" fill="#5A5A5A"/>
<circle cx="465" cy="231" r="12" fill="#5A5A5A"/>
<circle cx="511" cy="219" r="12" fill="#5A5A5A"/>
<circle cx="511" cy="219" r="12" fill="#5A5A5A"/>
<circle cx="511" cy="219" r="12" fill="#5A5A5A"/>
<circle cx="511" cy="219" r="12" fill="#5A5A5A"/>
<circle cx="511" cy="219" r="12" fill="#5A5A5A"/>
<circle cx="511" cy="219" r="12" fill="#5A5A5A"/>
<circle cx="511" cy="219" r="12" fill="#5A5A5A"/>
<circle cx="511" cy="219" r="12" fill="#5A5A5A"/>
<circle cx="511" cy="219" r="12" fill="#5A5A5A"/>
<circle cx="511" cy="219" r="12" fill="#5A5A5A"/>
<circle cx="457" cy="191" r="12" fill="#5A5A5A"/>
<circle cx="457" cy="191" r="12" fill="#5A5A5A"/>
<circle cx="457" cy="191" r="12" fill="#5A5A5A"/>
<circle cx="457" cy="191" r="12" fill="#5A5A5A"/>
<circle cx="457" cy="191" r="12" fill="#5A5A5A"/>
<circle cx="457" cy="191" r="12" fill="#5A5A5A"/>
<circle cx="457" cy="191" r="12" fill="#5A5A5A"/>
<circle cx="457" cy="191" r="12" fill="#5A5A5A"/>
<circle cx="457" cy="191" r="12" fill="#5A5A5A"/>
<circle cx="457" cy="191" r="12" fill="#5A5A5A"/>
<circle cx="535" cy="149" r="12" fill="#5A5A5A"/>
<circle cx="535" cy="149" r="12" fill="#5A5A5A"/>
<circle cx="535" cy="149" r="12" fill="#5A5A5A"/>
<circle cx="535" cy="149" r="12" fill="#5A5A5A"/>
<circle cx="535" cy="149" r="12" fill="#5A5A5A"/>
<circle cx="535" cy="149" r="12" fill="#5A5A5A"/>
<circle cx="535" cy="149" r="12" fill="#5A5A5A"/>
<circle cx="535" cy="149" r="12" fill="#5A5A5A"/>
<circle cx="535" cy="149" r="12" fill="#5A5A5A"/>
<circle cx="535" cy="149" r="12" fill="#5A5A5A"/>
<circle cx="487" cy="134" r="12" fill="#5A5A5A"/>
<circle cx="487" cy="134" r="12" fill="#5A5A5A"/>
<circle cx="487" cy="134" r="12" fill="#5A5A5A"/>
<circle cx="487" cy="134" r="12" fill="#5A5A5A"/>
<circle cx="487" cy="134" r="12" fill="#5A5A5A"/>
<circle cx="487" cy="134" r="12" fill="#5A5A5A"/>
<circle cx="487" cy="134" r="12" fill="#5A5A5A"/>
<circle cx="487" cy="134" r="12" fill="#5A5A5A"/>
<circle cx="487" cy="134" r="12" fill="#5A5A5A"/>
<circle cx="487" cy="134" r="12" fill="#5A5A5A"/>
<circle cx="522" cy="83" r="12" fill="#5A5A5A"/>
<circle cx="522" cy="83" r="12" fill="#5A5A5A"/>
<circle cx="522" cy="83" r="12" fill="#5A5A5A"/>
<circle cx="522" cy="83" r="12" fill="#5A5A5A"/>
<circle cx="522" cy="83" r="12" fill="#5A5A5A"/>
<circle cx="522" cy="83" r="12" fill="#5A5A5A"/>
<circle cx="522" cy="83" r="12" fill="#5A5A5A"/>
<circle cx="522" cy="83" r="12" fill="#5A5A5A"/>
<circle cx="522" cy="83" r="12" fill="#5A5A5A"/>
<circle cx="522" cy="83" r="12" fill="#5A5A5A"/>
<circle cx="441" cy="94" r="12" fill="#5A5A5A"/>
<circle cx="441" cy="94" r="12" fill="#5A5A5A"/>
<circle cx="441" cy="94" r="12" fill="#5A5A5A"/>
<circle cx="441" cy="94" r="12" fill="#5A5A5A"/>
<circle cx="441" cy="94" r="12" fill="#5A5A5A"/>
<circle cx="441" cy="94" r="12" fill="#5A5A5A"/>
<circle cx="441" cy="94" r="12" fill="#5A5A5A"/>
<circle cx="441" cy="94" r="12" fill="#5A5A5A"/>
<circle cx="441" cy="94" r="12" fill="#5A5A5A"/>
<circle cx="441" cy="94" r="12" fill="#5A5A5A"/>
<circle cx="512" cy="43" r="12" fill="#5A5A5A"/>
<circle cx="512" cy="43" r="12" fill="#5A5A5A"/>
<circle cx="512" cy="43" r="12" fill="#5A5A5A"/>
<circle cx="512" cy="43" r="12" fill="#5A5A5A"/>
<circle cx="512" cy="43" r="12" fill="#5A5A5A"/>
<circle cx="512" cy="43" r="12" fill="#5A5A5A"/>
<circle cx="512" cy="43" r="12" fill="#5A5A5A"/>
<circle cx="512" cy="43" r="12" fill="#5A5A5A"/>
<circle cx="512" cy="43" r="12" fill="#5A5A5A"/>
<circle cx="512" cy="43" r="12" fill="#5A5A5A"/>
<circle cx="428" cy="28" r="12" fill="#5A5A5A"/>
<circle cx="428" cy="28" r="12" fill="#5A5A5A"/>
<circle cx="428" cy="28" r="12" fill="#5A5A5A"/>
<circle cx="428" cy="28" r="12" fill="#5A5A5A"/>
<circle cx="428" cy="28" r="12" fill="#5A5A5A"/>
<circle cx="428" cy="28" r="12" fill="#5A5A5A"/>
<circle cx="428" cy="28" r="12" fill="#5A5A5A"/>
<circle cx="428" cy="28" r="12" fill="#5A5A5A"/>
<circle cx="428" cy="28" r="12" fill="#5A5A5A"/>
<circle cx="428" cy="28" r="12" fill="#5A5A5A"/>
<circle cx="383" cy="59" r="12" fill="#5A5A5A"/>
<circle cx="383" cy="59" r="12" fill="#5A5A5A"/>
<circle cx="383" cy="59" r="12" fill="#5A5A5A"/>
<circle cx="383" cy="59" r="12" fill="#5A5A5A"/>
<circle cx="383" cy="59" r="12" fill="#5A5A5A"/>
<circle cx="383" cy="59" r="12" fill="#5A5A5A"/>
<circle cx="383" cy="59" r="12" fill="#5A5A5A"/>
<circle cx="383" cy="59" r="12" fill="#5A5A5A"/>
<circle cx="383" cy="59" r="12" fill="#5A5A5A"/>
<circle cx="383" cy="59" r="12" fill="#5A5A5A"/>
<circle cx="274" cy="31" r="12" fill="#5A5A5A"/>
<circle cx="274" cy="31" r="12" fill="#5A5A5A"/>
<circle cx="274" cy="31" r="12" fill="#5A5A5A"/>
<circle cx="274" cy="31" r="12" fill="#5A5A5A"/>
<circle cx="274" cy="31" r="12" fill="#5A5A5A"/>
<circle cx="274" cy="31" r="12" fill="#5A5A5A"/>
<circle cx="274" cy="31" r="12" fill="#5A5A5A"/>
<circle cx="274" cy="31" r="12" fill="#5A5A5A"/>
<circle cx="274" cy="31" r="12" fill="#5A5A5A"/>
<circle cx="274" cy="31" r="12" fill="#5A5A5A"/>
<circle cx="229" cy="61" r="12" fill="#5A5A5A"/>
<circle cx="229" cy="61" r="12" fill="#5A5A5A"/>
<circle cx="229" cy="61" r="12" fill="#5A5A5A"/>
<circle cx="229" cy="61" r="12" fill="#5A5A5A"/>
<circle cx="229" cy="61" r="12" fill="#5A5A5A"/>
<circle cx="229" cy="61" r="12" fill="#5A5A5A"/>
<circle cx="229" cy="61" r="12" fill="#5A5A5A"/>
<circle cx="229" cy="61" r="12" fill="#5A5A5A"/>
<circle cx="229" cy="61" r="12" fill="#5A5A5A"/>
<circle cx="229" cy="61" r="12" fill="#5A5A5A"/>
<circle cx="178" cy="47" r="12" fill="#5A5A5A"/>
<circle cx="178" cy="47" r="12" fill="#5A5A5A"/>
<circle cx="178" cy="47" r="12" fill="#5A5A5A"/>
<circle cx="178" cy="47" r="12" fill="#5A5A5A"/>
<circle cx="178" cy="47" r="12" fill="#5A5A5A"/>
<circle cx="178" cy="47" r="12" fill="#5A5A5A"/>
<circle cx="178" cy="47" r="12" fill="#5A5A5A"/>
<circle cx="178" cy="47" r="12" fill="#5A5A5A"/>
<circle cx="178" cy="47" r="12" fill="#5A5A5A"/>
<circle cx="178" cy="47" r="12" fill="#5A5A5A"/>
<circle cx="125" cy="28" r="12" fill="#5A5A5A"/>
<circle cx="125" cy="28" r="12" fill="#5A5A5A"/>
<circle cx="125" cy="28" r="12" fill="#5A5A5A"/>
<circle cx="125" cy="28" r="12" fill="#5A5A5A"/>
<circle cx="125" cy="28" r="12" fill="#5A5A5A"/>
<circle cx="125" cy="28" r="12" fill="#5A5A5A"/>
<circle cx="125" cy="28" r="12" fill="#5A5A5A"/>
<circle cx="125" cy="28" r="12" fill="#5A5A5A"/>
<circle cx="125" cy="28" r="12" fill="#5A5A5A"/>
<circle cx="125" cy="28" r="12" fill="#5A5A5A"/>
<path d="M320.939 165.939C320.354 166.525 320.354 167.475 320.939 168.061L330.485 177.607C331.071 178.192 332.021 178.192 332.607 177.607C333.192 177.021 333.192 176.071 332.607 175.485L324.121 167L332.607 158.515C333.192 157.929 333.192 156.979 332.607 156.393C332.021 155.808 331.071 155.808 330.485 156.393L320.939 165.939ZM355 165.5H322V168.5H355V165.5Z" fill="#F178B6"/>
<path d="M480.061 167.061C480.646 166.475 480.646 165.525 480.061 164.939L470.515 155.393C469.929 154.808 468.979 154.808 468.393 155.393C467.808 155.979 467.808 156.929 468.393 157.515L476.879 166L468.393 174.485C467.808 175.071 467.808 176.021 468.393 176.607C468.979 177.192 469.929 177.192 470.515 176.607L480.061 167.061ZM421 167.5H479V164.5H421V167.5Z" fill="#444343"/>
<path d="M434.516 141H431.24L430.124 125.016L433.004 124.512L433.868 138.48C436.268 135.744 437.96 131.184 438.944 124.8H441.572C441.284 127.728 440.504 130.776 439.232 133.944C437.984 137.088 436.412 139.44 434.516 141Z" fill="black"/>
<circle cx="386.5" cy="168.5" r="34.5" fill="#AB84FE"/>
<path d="M369.14 172L370 159.76H371.78L371.02 170.54L376.26 170.48L375.96 172H369.14ZM383.27 172L380.55 162.12L379.13 172H377.49L379.43 159.76H381.55L384.29 169.56L388.35 159.76H390.43L390.67 172H388.97L388.81 162.24L384.95 171.66L384.87 171.64V171.66L383.27 172ZM400.782 170.12L401.122 171.46C399.788 171.98 398.508 172.24 397.282 172.24C396.042 172.24 394.982 171.787 394.102 170.88C393.222 169.96 392.782 168.647 392.782 166.94C392.782 165.62 392.982 164.42 393.382 163.34C393.782 162.247 394.435 161.34 395.342 160.62C396.262 159.887 397.368 159.52 398.662 159.52C399.728 159.52 400.742 159.713 401.702 160.1L401.222 161.62C400.062 161.22 398.968 161.02 397.942 161.02C395.795 161.02 394.695 162.9 394.642 166.66C394.628 168.007 394.935 169.027 395.562 169.72C396.202 170.4 396.942 170.74 397.782 170.74C398.635 170.74 399.635 170.533 400.782 170.12Z" fill="black"/>
<path d="M345.744 135.296L339.28 135.232L338.672 144H335.824L337.2 124.416H347.92L347.44 126.72L339.888 126.624L339.44 133.088H346.224L345.744 135.296ZM352.19 144.168L352.078 142.474C351.826 142.922 351.504 143.319 351.112 143.664C350.73 144 350.347 144.168 349.964 144.168C348.928 144.168 348.41 143.314 348.41 141.606C348.41 140.477 348.709 139.515 349.306 138.722C349.913 137.929 350.571 137.532 351.28 137.532C351.644 137.532 352.022 137.607 352.414 137.756L352.652 134.508L353.8 134.312L353.142 143.972L352.19 144.168ZM350.468 143.174C350.758 143.174 351.07 142.931 351.406 142.446C351.742 141.951 352.022 141.177 352.246 140.122L352.344 138.722C351.915 138.545 351.481 138.456 351.042 138.456C350.622 138.456 350.282 138.708 350.02 139.212C349.768 139.716 349.642 140.467 349.642 141.466C349.642 142.605 349.918 143.174 350.468 143.174Z" fill="black"/>
<defs>
<filter id="filter0_d_1_125" x="16" y="106" width="310" height="121" filterUnits="userSpaceOnUse" color-interpolation-filters="sRGB">
<feFlood flood-opacity="0" result="BackgroundImageFix"/>
<feColorMatrix in="SourceAlpha" type="matrix" values="0 0 0 0 0 0 0 0 0 0 0 0 0 0 0 0 0 0 127 0" result="hardAlpha"/>
<feOffset dy="4"/>
<feGaussianBlur stdDeviation="2"/>
<feComposite in2="hardAlpha" operator="out"/>
<feColorMatrix type="matrix" values="0 0 0 0 0 0 0 0 0 0 0 0 0 0 0 0 0 0 0.25 0"/>
<feBlend mode="normal" in2="BackgroundImageFix" result="effect1_dropShadow_1_125"/>
<feBlend mode="normal" in="SourceGraphic" in2="effect1_dropShadow_1_125" result="shape"/>
</filter>
</defs>
</svg>
