<svg xmlns="http://www.w3.org/2000/svg" enable-background="new 0 0 66 66" viewBox="0 0 66 66"><polygon fill="#459FD8" points="12.995 1 43.297 1 43.297 55.793 2.092 55.793 2.092 10.547"/><polygon fill="#E4E4E4" points="18.006 5.319 48.308 5.319 48.308 60.112 7.103 60.112 7.103 14.866"/><polygon fill="#FFF" points="22.879 10.207 53.181 10.207 53.181 65 11.976 65 11.976 19.754"/><polygon fill="#E4E4E4" points="49.518 61.337 49.518 13.869 24.256 13.869 15.639 21.416 15.639 61.337"/><path fill="#FFF" d="M46.27262,50.8066l12.68752-12.6875c1.13248-1.1324,2.96849-1.1324,4.10089,0l0,0
			c1.1325,1.1324,1.1325,2.9685,0,4.1009l-12.6875,12.6875l-5.6398,1.539L46.27262,50.8066z"/><path fill="#459FD8" d="M60.98922,44.2919l2.0718-2.0719c1.1324-1.1324,1.1324-2.9684,0-4.1009
				c-1.1324-1.1324-2.9685-1.1324-4.10089,0l-2.07182,2.0719L60.98922,44.2919z"/><line x1="55.741" x2="58.847" y1="45.439" y2="42.333" fill="#FFF"/><line x1="19.8" x2="37.217" y1="56.135" y2="56.135" fill="#FFF"/><line x1="19.8" x2="42.574" y1="49.958" y2="49.958" fill="#FFF"/><line x1="19.8" x2="45.357" y1="43.78" y2="43.78" fill="#FFF"/><line x1="19.8" x2="45.357" y1="37.603" y2="37.603" fill="#FFF"/><line x1="19.8" x2="45.357" y1="31.426" y2="31.426" fill="#FFF"/><line x1="19.8" x2="45.357" y1="25.249" y2="25.249" fill="#FFF"/><line x1="31.734" x2="45.357" y1="19.071" y2="19.071" fill="#FFF"/><path fill="#2F1854" d="M63.41472,37.7656c-1.2842-1.2852-3.5239-1.2852-4.8081,0l-4.9258,4.9258V9.707h-4.8726V4.8183h-5.0112
				V0.5h-30.9902l-11.2144,9.8203v45.9726h5.0108v4.3194h4.873V65.5h42.2046V52.3071l7.30832-7.3084l0.00029,0.0003l2.4253-2.42581
				C64.72902,41.2598,64.74802,39.0999,63.41472,37.7656z M62.70762,38.4726c0.9491,0.9491,0.919,2.47459,0,3.39359
				l-1.71849,1.71851l-3.39381-3.3933l1.7183-1.7188C60.21992,37.5664,61.80042,37.5664,62.70762,38.4726z M2.59242,55.2929V10.7734
				L13.18272,1.5h29.6143v3.3183h-24.979l-11.2148,9.8213v40.6533H2.59242z M7.60322,59.6123V15.0927l10.5908-9.2744h29.6142V9.707
				h-25.1176l-11.2144,9.8203v40.085H7.60322z M52.68082,64.5h-40.2046V19.9804l10.5903-9.2734h29.6143v32.9844l-6.76168,6.7617
				c-0.06161,0.0615-0.106,0.1377-0.12891,0.2217l-1.53909,5.6396c-0.04741,0.1729,0.002,0.3584,0.12889,0.4854
				c0.1255,0.1248,0.3085,0.1766,0.4854,0.1289l5.6401-1.5391c0.0835-0.02341,0.1602-0.06741,0.2217-0.1289l1.9536-1.9536V64.5z
				 M50.11392,54.4599l-4.6675,1.2734l1.2735-4.6669l10.16821-10.1683l1.34329,1.3432l-2.8441,2.8446
				c-0.1953,0.19529-0.1953,0.5117,0,0.707c0.1953,0.19529,0.5117,0.19529,0.7071,0l2.8441-2.8446l1.3435,1.3435L50.11392,54.4599z"/><path fill="#2F1854" d="M37.21692 55.6347h-17.417c-.2763 0-.5.2236-.5.5 0 .2764.2237.5.5.5h17.417c.2764 0 .5-.2236.5-.5C37.71692 55.8583 37.49332 55.6347 37.21692 55.6347zM42.57392 49.458h-22.774c-.2763 0-.5.2236-.5.5 0 .2763.2237.5.5.5h22.774c.2763 0 .5-.2237.5-.5C43.07392 49.6816 42.85022 49.458 42.57392 49.458zM19.79992 44.28019h25.5567c.2763 0 .5-.22359.5-.5 0-.27629-.2237-.5-.5-.5h-25.5567c-.2763 0-.5.22371-.5.5C19.29992 44.0566 19.52362 44.28019 19.79992 44.28019zM19.79992 38.1035h25.5567c.2763 0 .5-.2237.5-.5 0-.2764-.2237-.5-.5-.5h-25.5567c-.2763 0-.5.2236-.5.5C19.29992 37.8798 19.52362 38.1035 19.79992 38.1035zM19.79992 31.9257h25.5567c.2763 0 .5-.2236.5-.5 0-.2763-.2237-.5-.5-.5h-25.5567c-.2763 0-.5.2237-.5.5C19.29992 31.7021 19.52362 31.9257 19.79992 31.9257zM19.79992 25.749h25.5567c.2763 0 .5-.2237.5-.5 0-.2764-.2237-.5-.5-.5h-25.5567c-.2763 0-.5.2236-.5.5C19.29992 25.5253 19.52362 25.749 19.79992 25.749zM31.73402 19.57119h13.6226c.2763 0 .5-.22359.5-.5 0-.27629-.2237-.5-.5-.5h-13.6226c-.2764 0-.5.22371-.5.5C31.23402 19.3476 31.45762 19.57119 31.73402 19.57119z"/></svg>