<svg xmlns="http://www.w3.org/2000/svg" enable-background="new 0 0 67 67" viewBox="0 0 67 67"><polygon fill="#BDD7F0" points="39.28 38.261 16.148 38.261 27.714 24.02"/><polygon fill="#48A0D9" points="27.652 38.261 8.585 38.261 18.118 27.197"/><rect width="49.83" height="1" x="8.585" y="61.7" fill="#BDD7F0"/><rect width="49.83" height="1" x="8.585" y="58.885" fill="#BDD7F0"/><rect width="49.83" height="6.35" x="9.736" y="11.849" fill="#F6968A"/><rect width="2.282" height="2.207" x="44.301" y="2.947" fill="#3EBDA7"/><rect width="2.282" height="2.207" x="49.689" y="2.947" fill="#F6968A"/><rect width="2.282" height="2.207" x="55.077" y="2.947" fill="#BDD7F0"/><path fill="#3EBDA7" d="M23.1318,26.25575c0,0.8514-0.69663,1.54803-1.56353,1.54803c-0.8514,0-1.54803-0.69663-1.54803-1.54803
			c0-0.86689,0.69663-1.56353,1.54803-1.56353C22.43516,24.69222,23.1318,25.38886,23.1318,26.25575z"/><rect width="13.107" height="1" x="18.066" y="42.938" fill="#BDD7F0"/><rect width="10.82" height="1" x="18.066" y="46.296" fill="#BDD7F0"/><rect width="13.107" height="1" x="18.066" y="51.316" fill="#BDD7F0"/><rect width="10.82" height="1" x="18.066" y="54.674" fill="#BDD7F0"/><rect width="6.197" height="5.43" x="9.534" y="43.539" fill="#F6968A"/><rect width="6.197" height="5.43" x="9.534" y="51.917" fill="#BDD7F0"/><rect width="6.197" height="5.43" x="36.776" y="43.539" fill="#48A0D9"/><rect width="6.197" height="5.43" x="36.776" y="51.917" fill="#3EBDA7"/><path fill="#223059" d="M39.70508 38.89055v-18.0044H8.08496v18.0044H39.70508zM9.08496 21.88616h29.62012v16.0044H9.08496V21.88616zM58.91504 10.09954H8.08496v7.34961h50.83008V10.09954zM57.91504 16.44914H9.08496v-5.34961h48.83008V16.44914z"/><path fill="#223059" d="M4.08496,0.99993c0,31.44636,0,45.83501,0,65h58.83008c0-11.88312,0-57.22136,0-65H4.08496z
			 M61.91504,64.99992H5.08496V7.10198h56.83008V64.99992z M5.08496,6.09954V1.99993h56.83008v4.09961H5.08496z"/><rect width="26.149" height="1" x="9.64" y="3.551" fill="#223059"/><rect width="15.622" height="1" x="42.793" y="21.129" fill="#223059"/><rect width="15.622" height="1" x="42.793" y="26.635" fill="#223059"/><rect width="15.622" height="1" x="42.793" y="32.141" fill="#223059"/><rect width="15.622" height="1" x="42.793" y="37.647" fill="#223059"/><path fill="#223059" d="M8.08691 48.33245h7.19727v-6.43018H8.08691V48.33245zM9.08691 42.90227h5.19727v4.43018H9.08691V42.90227zM8.08691 56.71038h7.19727V50.2802H8.08691V56.71038zM9.08691 51.2802h5.19727v4.43018H9.08691V51.2802zM35.3291 48.33245h7.19727v-6.43018H35.3291V48.33245zM36.3291 42.90227h5.19727v4.43018H36.3291V42.90227zM35.3291 56.71038h7.19727V50.2802H35.3291V56.71038zM36.3291 51.2802h5.19727v4.43018H36.3291V51.2802z"/><g><rect width="13.107" height="1" x="45.308" y="42.938" fill="#BDD7F0"/><rect width="10.82" height="1" x="45.308" y="46.296" fill="#BDD7F0"/></g><g><rect width="13.107" height="1" x="45.308" y="51.316" fill="#BDD7F0"/><rect width="10.82" height="1" x="45.308" y="54.674" fill="#BDD7F0"/></g></svg>