<svg xmlns="http://www.w3.org/2000/svg" viewBox="0 0 78 60"><g data-name="Layer 2"><g data-name="Layer 1"><rect width="78" height="60" fill="#d0d3d6" rx="4" ry="4"/><path fill="#ecf0f1" d="M74 54a2 2 0 0 1-2 2H6a2 2 0 0 1-2-2V13h70z"/><circle cx="6.22" cy="6.91" r="2.3" fill="#ce422c"/><circle cx="12.22" cy="6.91" r="2.3" fill="#e17b3b"/><circle cx="18.22" cy="6.91" r="2.3" fill="#30917a"/><path fill="#94a5a6" d="M7 17h22v3H7z"/><path fill="#d0d3d6" d="M7 24h42v3H7zM7 30h42v3H7zM7 36h42v3H7zM7 42h42v3H7zM7 48h42v3H7zM52 24h19v27H52z"/></g></g></svg>